<svg width="644" height="624" viewBox="0 0 644 624" fill="none" xmlns="http://www.w3.org/2000/svg">
<rect width="644" height="624.007" rx="98" fill="#1C1C1C"/>
<path d="M223.357 113C182.306 113 149 146.342 149 187.438V435.562C149 476.658 182.306 510 223.357 510H446.429H471.214C484.924 510 496 498.912 496 485.188C496 471.463 484.924 460.375 471.214 460.375V410.75C484.924 410.75 496 399.662 496 385.938V137.812C496 124.088 484.924 113 471.214 113H446.429H223.357ZM223.357 410.75H421.643V460.375H223.357C209.648 460.375 198.571 449.287 198.571 435.562C198.571 421.838 209.648 410.75 223.357 410.75ZM248.143 224.656C248.143 217.833 253.72 212.25 260.536 212.25H409.25C416.066 212.25 421.643 217.833 421.643 224.656C421.643 231.48 416.066 237.062 409.25 237.062H260.536C253.72 237.062 248.143 231.48 248.143 224.656ZM260.536 261.875H409.25C416.066 261.875 421.643 267.458 421.643 274.281C421.643 281.105 416.066 286.688 409.25 286.688H260.536C253.72 286.688 248.143 281.105 248.143 274.281C248.143 267.458 253.72 261.875 260.536 261.875Z" fill="white"/>
</svg>
