<svg width="612" height="593" viewBox="0 0 612 593" fill="none" xmlns="http://www.w3.org/2000/svg">
<rect width="612" height="593" rx="36" fill="#1C1C1C"/>
<path d="M195.357 75C149.337 75 112 112.289 112 158.25V435.75C112 481.711 149.337 519 195.357 519H445.429H473.214C488.583 519 501 506.599 501 491.25C501 475.901 488.583 463.5 473.214 463.5V408C488.583 408 501 395.599 501 380.25V102.75C501 87.4008 488.583 75 473.214 75H445.429H195.357ZM195.357 408H417.643V463.5H195.357C179.988 463.5 167.571 451.099 167.571 435.75C167.571 420.401 179.988 408 195.357 408ZM223.143 199.875C223.143 192.244 229.395 186 237.036 186H403.75C411.391 186 417.643 192.244 417.643 199.875C417.643 207.506 411.391 213.75 403.75 213.75H237.036C229.395 213.75 223.143 207.506 223.143 199.875ZM237.036 241.5H403.75C411.391 241.5 417.643 247.744 417.643 255.375C417.643 263.006 411.391 269.25 403.75 269.25H237.036C229.395 269.25 223.143 263.006 223.143 255.375C223.143 247.744 229.395 241.5 237.036 241.5Z" fill="white"/>
</svg>
